<svg width="83" height="83" viewBox="0 0 83 83" fill="none" xmlns="http://www.w3.org/2000/svg">
<rect width="83" height="83" rx="10" fill="white"/>
<path d="M54.5 49.3333L58.6667 53.5L54.5 57.6666" stroke="black" stroke-width="4" stroke-linecap="round" stroke-linejoin="round"/>
<path d="M28.6663 31C29.5504 31 30.3982 30.6488 31.0234 30.0237C31.6485 29.3985 31.9997 28.5507 31.9997 27.6666C31.9997 26.7826 31.6485 25.9347 31.0234 25.3096C30.3982 24.6845 29.5504 24.3333 28.6663 24.3333C27.7823 24.3333 26.9344 24.6845 26.3093 25.3096C25.6842 25.9347 25.333 26.7826 25.333 27.6666C25.333 28.5507 25.6842 29.3985 26.3093 30.0237C26.9344 30.6488 27.7823 31 28.6663 31V31Z" stroke="black" stroke-width="4" stroke-linejoin="round"/>
<path d="M32 27.6666H38.6667C39.5507 27.6666 40.3986 28.0178 41.0237 28.6429C41.6488 29.2681 42 30.1159 42 31V50.1666C42 51.0507 42.3512 51.8985 42.9763 52.5236C43.6014 53.1488 44.4493 53.5 45.3333 53.5H58.6667" stroke="black" stroke-width="4" stroke-linecap="round" stroke-linejoin="round"/>
</svg>
