<svg width="37" height="41" viewBox="0 0 37 41" fill="none" xmlns="http://www.w3.org/2000/svg">
<path d="M30.5275 28.8318C28.2096 28.8318 26.2804 30.2239 25.3476 32.2238L22.6128 32.2238C21.362 32.2238 20.3515 31.2133 20.3515 29.9625L20.3515 22.0125L25.8988 22.0125L25.8988 17.8079L20.3515 17.8079L20.3515 10.1759C20.3515 8.92512 21.362 7.9146 22.6128 7.9146L25.3476 7.9146C26.2804 9.91445 28.2096 11.3066 30.5275 11.3066C33.6495 11.3066 36.1808 8.77672 36.1808 5.65327C36.1808 2.52982 33.6495 -3.03822e-05 30.5275 -3.02458e-05C28.2096 -3.01444e-05 26.2804 1.3921 25.3476 3.39195L22.6128 3.39195C18.8675 3.39195 15.8289 6.4306 15.8289 10.1759L15.8289 17.8079L10.8328 17.8079C9.96356 15.808 7.97078 14.4159 5.65292 14.4159C2.52947 14.4159 -0.000382484 16.9458 -0.000382347 20.0692C-0.00038221 23.1927 2.52947 25.7225 5.65292 25.7225C7.97078 25.7225 9.96357 24.3304 10.8328 22.3305L15.8289 22.3305L15.8289 29.9625C15.8289 33.7092 18.8675 36.7464 22.6128 36.7464L25.3476 36.7464C26.2804 38.7428 28.2096 40.1384 30.5275 40.1384C33.6495 40.1384 36.1808 37.6072 36.1808 34.4851C36.1808 31.3617 33.6495 28.8318 30.5275 28.8318ZM28.8315 34.4851C28.8315 33.5488 29.5911 32.7891 30.5275 32.7891C31.4638 32.7891 32.2235 33.5488 32.2235 34.4851C32.2235 35.4215 31.4638 36.1811 30.5275 36.1811C29.5911 36.1811 28.8315 35.4215 28.8315 34.4851ZM28.8315 5.65327C28.8315 4.71341 29.5911 3.95728 30.5275 3.95728C31.4638 3.95728 32.2234 4.71341 32.2234 5.65327C32.2234 6.59314 31.4638 7.34927 30.5275 7.34927C29.5911 7.34927 28.8315 6.59314 28.8315 5.65327ZM7.34891 20.0692C7.34891 21.0091 6.59278 21.7652 5.65292 21.7652C4.71306 21.7652 3.95693 21.0091 3.95693 20.0692C3.95693 19.1293 4.71306 18.3732 5.65292 18.3732C6.59278 18.3732 7.34891 19.1293 7.34891 20.0692Z" fill="#DDF247"/>
<path d="M31.0221 14.1332C27.8609 14.1332 25.2982 16.775 25.2982 20.0339C25.2982 23.2927 27.8609 25.9345 31.0221 25.9345C34.1834 25.9345 36.7461 23.2927 36.7461 20.0339C36.7461 16.775 34.1834 14.1332 31.0221 14.1332ZM31.0221 21.7843C30.0843 21.7843 29.3241 21.0006 29.3241 20.0339C29.3241 19.0671 30.0843 18.2834 31.0221 18.2834C31.9599 18.2834 32.7202 19.0671 32.7202 20.0339C32.7202 21.0006 31.9599 21.7843 31.0221 21.7843Z" fill="#DDF247"/>
</svg>
