<svg width="40" height="40" viewBox="0 0 40 40" fill="none" xmlns="http://www.w3.org/2000/svg">
<path d="M15.833 33.8477C15.833 31.3252 14.2939 29.2257 12.083 28.2106V21.4584C13.5518 22.2966 15.2627 22.7734 17.083 22.7734H24.583C27.3408 22.7734 29.583 24.9806 29.583 27.6953V28.2106C27.3721 29.2257 25.833 31.3252 25.833 33.8477C25.833 37.2453 28.6299 40 32.083 40C35.5361 40 38.333 37.2453 38.333 33.8477C38.333 31.3252 36.7939 29.2257 34.583 28.2106V27.6953C34.583 22.2582 30.1064 17.8516 24.583 17.8516H17.083C14.3252 17.8516 12.083 15.6444 12.083 12.9297V12.4144C14.2939 11.4685 15.833 9.2998 15.833 6.77734C15.833 3.37817 13.0361 0.625 9.58301 0.625C6.13145 0.625 3.33301 3.37817 3.33301 6.77734C3.33301 9.2998 4.87598 11.4685 7.08301 12.4144V28.2106C4.87598 29.2257 3.33301 31.3252 3.33301 33.8477C3.33301 37.2453 6.13145 40 9.58301 40C13.0361 40 15.833 37.2453 15.833 33.8477ZM9.58301 32.002C10.6182 32.002 11.458 32.8287 11.458 33.8477C11.458 34.8666 10.6182 35.6934 9.58301 35.6934C8.54785 35.6934 7.70801 34.8666 7.70801 33.8477C7.70801 32.8287 8.54785 32.002 9.58301 32.002ZM32.083 35.6934C31.0439 35.6934 30.208 34.8666 30.208 33.8477C30.208 32.8287 31.0439 32.002 32.083 32.002C33.1221 32.002 33.958 32.8287 33.958 33.8477C33.958 34.8666 33.1221 35.6934 32.083 35.6934ZM9.58301 4.93164C10.6182 4.93164 11.458 5.75452 11.458 6.77734C11.458 7.80017 10.6182 8.62305 9.58301 8.62305C8.54785 8.62305 7.70801 7.80017 7.70801 6.77734C7.70801 5.75452 8.54785 4.93164 9.58301 4.93164Z" fill="#DDF247"/>
</svg>
