<svg width="335" height="49" viewBox="0 0 335 49" fill="none" xmlns="http://www.w3.org/2000/svg">
<g opacity="0.5" clip-path="url(#clip0_24_449)">
<path d="M109.998 1.63951V27.7397C109.998 33.5066 113.213 36.9118 118.792 36.9118C125.033 36.9118 128.62 33.1283 128.62 25.8464V1.63951H140.252V46.5554H128.628V41.352C125.889 45.6071 121.442 47.6883 115.297 47.6883C104.896 47.6915 98.3724 40.1265 98.3724 29.1563V1.63951H109.998ZM234.916 0.789678C248.156 0.815767 257.496 11.422 257.464 23.9152C257.466 25.1505 257.37 26.3841 257.175 27.6041L222.946 27.5401C224.258 32.9313 228.695 36.8166 235.411 36.8309C239.475 36.8309 243.829 35.3334 246.482 31.9341L254.414 38.2932C250.335 44.0548 243.141 47.4457 235.486 47.4307C221.972 47.385 211.589 37.247 211.611 24.103C211.637 11.5257 220.639 0.76359 234.916 0.789678ZM308.722 0.789678C315.813 0.789678 319.88 2.9635 322.62 7.12657L323.71 1.63364H334.345V46.5554H323.71L322.337 41.9299C319.218 45.3351 315.339 47.4222 308.722 47.4222C298.508 47.4078 286.877 38.4236 286.877 24.4298C286.877 10.3407 298.318 0.789678 308.722 0.789678ZM70.4186 0.789678C83.7504 0.789678 94.3417 11.1964 94.3417 24.0515C94.3417 36.8166 83.7504 47.4078 70.4186 47.4078C57.1793 47.4078 46.5907 36.8048 46.5907 24.0515C46.5907 11.1898 57.1793 0.789678 70.4186 0.789678ZM190.021 0.503357C197.52 0.503357 204.162 3.82507 207.77 9.99369L197.526 15.4136C196.008 12.3756 193.16 10.6674 189.553 10.6674C186.044 10.6674 184.332 11.9014 184.332 13.9885C184.332 21.0128 208.819 16.553 208.819 33.3566C208.819 42.0897 201.702 47.402 190.218 47.402C180.442 47.3935 173.608 44.167 170.194 36.7644L180.532 31.353C182.24 35.0562 185.656 37.2385 190.498 37.2385C194.958 37.2385 196.667 35.8167 196.667 33.8216C196.667 26.5951 172.18 30.9747 172.18 14.4542C172.18 5.34277 180.153 0.503357 190.021 0.503357ZM24.24 0.694455C28.2208 0.666602 32.1459 1.62964 35.6617 3.49678C39.1775 5.36393 42.1735 8.07651 44.3797 11.3901L34.453 17.1485C33.3045 15.507 31.7757 14.168 29.9972 13.2457C28.2187 12.3235 26.2434 11.8455 24.24 11.8525C17.4322 11.8525 11.8532 17.5267 11.8532 24.0515C11.8532 30.5755 17.4322 36.2498 24.24 36.2498C26.3378 36.2635 28.404 35.7393 30.2415 34.7272C32.079 33.7151 33.6265 32.2489 34.7361 30.4686L44.5649 36.3307C42.3857 39.7413 39.3784 42.5448 35.8235 44.4798C32.2685 46.4148 28.2815 47.4182 24.2341 47.3967C11.0008 47.4078 0.412109 36.8048 0.412109 24.0515C0.412109 11.0985 11.0008 0.694455 24.24 0.694455ZM170.125 0.48053L167.979 11.3353C167.584 11.2922 167.187 11.2701 166.789 11.2688C160.55 11.2831 156.963 15.0725 156.981 22.3518L157.044 46.5521L145.415 46.5782L145.317 1.6656L156.946 1.63951V6.84286C159.654 2.61652 164.054 0.529446 170.125 0.48053V0.48053ZM286.984 0.512488L284.827 11.3555C284.432 11.3138 284.034 11.2916 283.636 11.289C277.404 11.289 273.808 15.0699 273.808 22.3518V46.5554H262.179V1.6369L273.808 1.6369V6.8396C276.527 2.62174 280.922 0.543794 286.984 0.511836V0.512488ZM70.4186 11.9477C63.6114 11.9477 58.0324 17.622 58.0324 24.0515C58.0324 30.5755 63.6114 36.2498 70.4186 36.2498C77.3333 36.2498 82.9006 30.5755 82.9006 24.0515C82.9006 17.6226 77.3216 11.9477 70.4186 11.9477ZM310.71 11.9523C309.078 11.9583 307.463 12.286 305.957 12.9165C304.451 13.547 303.084 14.468 301.934 15.6268C300.784 16.7853 299.874 18.159 299.255 19.6694C298.636 21.1799 298.321 22.7974 298.327 24.4298C298.327 30.6714 303.906 36.2498 310.716 36.2498C317.61 36.2498 323.187 30.6708 323.187 24.3345C323.174 21.0381 321.852 17.8819 319.512 15.5598C317.172 13.2378 314.006 11.9402 310.71 11.9523H310.71ZM234.804 11.3816C229.413 11.3816 225.059 14.5787 223.348 19.3973L245.757 19.4377C245.103 14.899 240.382 11.3894 234.804 11.3816Z" fill="#4D4D4D"/>
</g>
<defs>
<clipPath id="clip0_24_449">
<rect width="333.932" height="47.6115" fill="white" transform="translate(0.412109 0.48053)"/>
</clipPath>
</defs>
</svg>
