<svg width="203" height="123" viewBox="0 0 203 123" fill="none" xmlns="http://www.w3.org/2000/svg">
<g opacity="0.5">
<path fill-rule="evenodd" clip-rule="evenodd" d="M21.9026 6.63671L132.453 6.61115L128.543 24.874L199.308 24.8576L180.415 116.498L90.7364 116.518L95.6224 92.7116L3.00836 92.7331L21.9026 6.63671ZM107.152 25.4055L99.4025 25.4055L96.102 44.2845C93.9495 40.4655 90.075 38.5199 84.4784 38.5199C80.8192 38.5199 77.5186 39.5287 74.5051 41.4022C71.4916 43.2757 69.1238 45.9418 67.4018 49.2565C65.6798 52.5711 64.8188 56.3181 64.8188 60.3533C64.8188 63.3797 65.3928 66.1179 66.6843 68.5679C67.9758 71.0178 69.7696 72.8913 72.0656 74.2604C74.3616 75.6295 76.9446 76.278 79.9582 76.278C82.3977 76.278 84.6219 75.8457 86.631 74.9089C88.5682 73.9722 90.2185 72.6751 91.6535 71.0178L91.7252 75.8457L98.2545 75.8457L107.152 25.4055ZM88.2812 67.7032C86.344 69.0723 84.1197 69.7208 81.6084 69.7208C78.8819 69.7208 76.6576 68.8561 75.0791 67.0547C73.5006 65.2532 72.7114 62.6592 72.7114 59.3445C72.7113 57.0387 73.2136 54.7328 74.2181 52.5711C75.2226 50.4094 76.7294 48.608 78.6666 47.2389C80.5322 45.8698 82.7564 45.1492 85.3394 45.1492C88.066 45.1492 90.2185 46.086 91.797 47.8153C93.3755 49.6168 94.2365 52.1388 94.2365 55.4534C94.2365 57.8313 93.6625 60.1371 92.658 62.2989C91.6535 64.5326 90.1467 66.3341 88.2812 67.7032ZM53.0209 40.3934C50.6531 39.1684 47.9266 38.5199 44.7696 38.5199C40.6081 38.5199 36.9488 39.5287 33.8635 41.4022C30.7782 43.2757 28.4105 45.8698 26.7602 49.1124C25.1099 52.427 24.3207 56.0299 24.3207 59.993C24.3207 63.1636 24.9664 65.9738 26.3297 68.4238C27.693 70.8737 29.6302 72.8193 32.2132 74.1883C34.7963 75.6295 37.738 76.278 41.1821 76.278C45.5588 76.278 49.2899 75.1971 52.4469 72.8913C55.5322 70.6575 57.6129 67.487 58.6892 63.4518L50.9401 63.4518C49.9356 65.6135 48.7159 67.2708 47.2808 68.3517C45.8458 69.4325 43.8368 69.937 41.3256 69.937C38.4555 69.937 36.2313 69.0723 34.581 67.1988C32.859 65.3253 32.0697 63.1636 32.0697 60.5695C32.0697 60.0651 32.0697 59.6327 32.1415 59.2004L59.6937 59.2004C60.1242 57.471 60.3394 55.5255 60.3394 53.3638C60.3394 50.4815 59.6937 47.8874 58.4739 45.6536C57.1824 43.4198 55.3887 41.6904 53.0209 40.3934ZM52.2316 53.3637L33.3613 53.3638C34.007 50.8417 35.2985 48.7521 37.3075 47.1668C39.2448 45.5815 41.5408 44.7889 44.1956 44.7889C46.6351 44.7889 48.6441 45.5095 50.0791 46.8065C51.5141 48.1036 52.3034 49.977 52.3034 52.3549C52.3034 52.6082 52.2788 52.8368 52.2584 53.0261C52.2439 53.1599 52.2316 53.2742 52.2316 53.3637ZM134.771 73.9006L120.083 42.2453L136.309 41.8929L145.658 62.317L162.422 41.6261L178.37 41.4631L152.49 73.7196L168.032 106.859L151.618 107.026L141.602 85.2099L123.64 107.312L107.785 107.474L134.771 73.9006Z" fill="#4D4D4D"/>
</g>
</svg>
