<svg width="335" height="126" viewBox="0 0 335 126" fill="none" xmlns="http://www.w3.org/2000/svg">
<g opacity="0.5" clip-path="url(#clip0_24_455)">
<path d="M52.22 29.9515L26.2783 14.9761L0.34375 29.9515L0.34375 14.9761L26.2822 0L52.2239 14.9761V29.9515H52.22Z" fill="#5A5A5A"/>
<path d="M0.34375 42.5275H13.9313V75.5398C13.9313 84.0695 20.3008 88.2267 26.2822 88.2267C32.3152 88.2267 38.6364 83.9586 38.6364 75.4257V42.5281H52.2239V76.3264C52.2239 84.1836 49.7534 90.2466 44.8135 94.4038C39.8697 98.5583 33.6959 100.581 26.1674 100.581C18.6461 100.581 12.469 98.5616 7.64331 94.4044C2.81368 90.2492 0.34375 84.4119 0.34375 76.6616L0.34375 42.5275ZM169.693 83.5562C165.58 87.219 160.895 89.0132 155.552 89.0132C145.805 89.0132 139.269 83.4603 138.53 74.8602H182.432C182.432 74.8602 182.727 72.0844 182.727 69.4775C182.727 61.3914 180.142 54.6527 174.863 49.1513C169.701 43.6499 162.966 40.9543 154.765 40.9543C146.122 40.9543 139.044 43.6499 133.428 49.1513C127.926 54.6527 125.12 61.8382 125.12 70.825V71.2685C125.12 80.1405 127.926 87.2151 133.428 92.4947C138.93 97.7711 146.229 100.467 155.101 100.467C165.418 100.467 173.625 96.3976 179.784 89.3824L169.693 83.5562ZM143.87 56.0002C146.897 53.6412 150.608 52.4078 154.761 52.4078C158.69 52.4078 161.947 53.6412 164.757 56.115C167.437 58.3671 168.885 61.1331 169.01 64.312H138.878C139.313 61.0255 140.975 58.2569 143.873 56.0041L143.87 56.0009V56.0002ZM306.47 108.095C300.957 121.11 295.19 125.537 286.347 125.537H280.218V113.493H285.173C288.215 113.493 291.044 112.348 293.739 106.131L296.434 99.9052L273.187 42.5275H287.001L303.508 83.8516L320.467 42.5275H334.276L306.474 108.094H306.47V108.095ZM105.119 20.8577V47.6526C100.666 43.6649 93.7398 41.2909 87.0416 41.2909C79.0664 41.2909 72.3316 44.0967 66.8302 49.8199C61.4397 55.4354 58.7441 62.3958 58.7441 70.8178C58.7441 79.2437 61.4397 86.2035 66.8302 91.9299C72.3316 97.5455 79.0703 100.356 87.0423 100.356C96.2359 100.356 102.047 96.7413 105.119 93.9094V99.1192H118.596V20.861H105.119V20.8577ZM101.076 83.1759C97.8194 86.4324 93.6661 88.1197 88.8365 88.1197C84.0069 88.1197 80.0786 86.4324 76.8215 83.1759C73.683 79.9194 72.1066 75.7655 72.1066 70.825C72.1066 65.8812 73.6798 61.7273 76.8221 58.4708C80.0786 55.2143 84.0069 53.5303 88.8359 53.5303C93.6661 53.5303 97.8194 55.2143 101.076 58.4708C104.443 61.7273 106.134 65.8812 106.134 70.825C106.134 75.7655 104.443 79.9194 101.076 83.1759ZM252.238 41.405C242.003 41.405 236.683 45.6509 233.038 49.7422C231.58 46.9619 227.474 41.405 217.881 41.405C209.773 41.405 204.995 45.5035 202.61 48.4202V42.5346H189.251V99.1264H202.61V66.5608C202.61 58.9247 207.328 53.4233 213.612 53.4233C220.019 53.4233 223.722 58.2529 223.722 65.9993V99.1225H237.085V66.5569C237.085 58.8106 241.685 53.4201 248.309 53.4201C254.712 53.4201 258.415 58.249 258.415 65.9921V99.1192H271.892V64.0863C271.892 49.332 263.961 41.4083 252.238 41.4083V41.4044V41.405Z" fill="black"/>
</g>
<defs>
<clipPath id="clip0_24_455">
<rect width="333.932" height="125.877" fill="white" transform="translate(0.34375)"/>
</clipPath>
</defs>
</svg>
